<?xml version="1.0" encoding="utf-8"?><svg version="1.1" preserveAspectRatio="xMidYMid" xml:space="preserve" width="762.64pt" height="622.6837710000001pt" viewBox="6.4 -6.390971 762.64 622.6837710000001" xmlns="http://www.w3.org/2000/svg" xmlns:xlink="http://www.w3.org/1999/xlink"><desc xmlns:eadoc="http://www.siemens.com/eauml/doc"><eadoc:guid>EAID_51C311D4_3969_42f8_ACF4_5F24C70B302D</eadoc:guid><eadoc:name>OSLO-metadataVoorServices</eadoc:name><eadoc:type>Diagram</eadoc:type><eadoc:note></eadoc:note></desc><g transform="matrix(1 0 0 -1 0 790)"><g stroke="#000000" fill="none" fill-rule="evenodd" stroke-width="1" stroke-linecap="round" stroke-linejoin="round" stroke-miterlimit="3" letter-spacing="normal" font-weight="normal" font-style="normal" baseline-shift="0"><g transform="matrix(0.6 0 0 0.6 0 790.549988)"><g transform="matrix(1.2 0 0 -1.199454 0 0)" font-family="CalibriUnicode" font-size="8"><path fill="#CACACA" stroke="none" d="M23 118C23 113 23 113 28 113H191C196 113 196 113 196 118V337C196 342 196 342 191 342H28C23 342 23 342 23 337V118" /><path stroke="none" fill="#FDFAF7" d="M20 115C20 110 20 110 25 110H188C193 110 193 110 193 115V334C193 339 193 339 188 339H25C20 339 20 339 20 334V115" /><path stroke="#5A5A5A" d="M20 115C20 110 20 110 25 110H188C193 110 193 110 193 115V334C193 339 193 339 188 339H25C20 339 20 339 20 334V115m0 0C20 110 20 110 25 110H188C193 110 193 110 193 115V334C193 339 193 339 188 339H25C20 339 20 339 20 334V115" /><rect stroke="#5A5A5A" x="20" y="110" width="173" height="229" /><text transform="matrix(1 0 0 1 90 119)" fill="#3C3C3C" font-weight="bold" stroke="none"><desc xmlns:eadoc="http://www.siemens.com/eauml/doc"><eadoc:guid>EAID_850D4EA2_3394_43d3_832D_54D8824D5AE3</eadoc:guid><eadoc:name>Catalogus</eadoc:name><eadoc:type>Class</eadoc:type><eadoc:note></eadoc:note></desc><tspan dx="0 " x="0" y="8">Catalogus</tspan></text><path stroke="#5A5A5A" d="M20 134H193" /><text transform="matrix(1 0 0 1 25 138)" fill="#854A2C" stroke="none"><tspan dx="0 " x="0" y="8">+ </tspan></text><text transform="matrix(1 0 0 1 39 138)" fill="#854A2C" stroke="none"><tspan dx="0 " x="0" y="8">beschrijving: TaalString [0..1]</tspan></text><text transform="matrix(1 0 0 1 25 148)" fill="#854A2C" stroke="none"><tspan dx="0 " x="0" y="8">+ </tspan></text><text transform="matrix(1 0 0 1 39 148)" fill="#854A2C" stroke="none"><tspan dx="0 " x="0" y="8">c</tspan><tspan dx="0 " x="3.5" y="8">o</tspan><tspan dx="0 " x="8" y="8">n</tspan><tspan dx="0 " x="12.5" y="8">t</tspan><tspan dx="0 " x="15.25" y="8">a</tspan><tspan dx="0 " x="19.25" y="8">c</tspan><tspan dx="0 0 " x="22.5" y="8">ti</tspan><tspan dx="0 " x="27" y="8">n</tspan><tspan dx="0 " x="31.25" y="8">f</tspan><tspan dx="0 " x="33.75" y="8">o</tspan><tspan dx="0 " x="38" y="8">r</tspan><tspan dx="0 " x="40.75" y="8">m</tspan><tspan dx="0 " x="47.25" y="8">a</tspan><tspan dx="0 0 " x="51" y="8">ti</tspan><tspan dx="0 " x="55.5" y="8">e</tspan><tspan dx="0 " x="59.5" y="8">:</tspan><tspan dx="0 " x="61.5" y="8"> </tspan><tspan dx="0 " x="63.25" y="8">C</tspan><tspan dx="0 " x="67.5" y="8">o</tspan><tspan dx="0 " x="71.75" y="8">n</tspan><tspan dx="0 " x="76" y="8">t</tspan><tspan dx="0 " x="78.75" y="8">a</tspan><tspan dx="0 " x="82.5" y="8">c</tspan><tspan dx="0 0 " x="85.75" y="8">ti</tspan><tspan dx="0 " x="90.25" y="8">n</tspan><tspan dx="0 " x="94.5" y="8">f</tspan><tspan dx="0 " x="97" y="8">o</tspan><tspan dx="0 " x="101.25" y="8"> </tspan><tspan dx="0 " x="103" y="8"> </tspan><tspan dx="0 " x="104.75" y="8">[</tspan><tspan dx="0 " x="107.25" y="8">0</tspan><tspan dx="0 " x="111.25" y="8">.</tspan><tspan dx="0 " x="113.25" y="8">.</tspan><tspan dx="0 " x="115.25" y="8">n</tspan><tspan dx="0 " x="119.5" y="8">]</tspan></text><text transform="matrix(1 0 0 1 25 158)" fill="#854A2C" stroke="none"><tspan dx="0 " x="0" y="8">+ </tspan></text><text transform="matrix(1 0 0 1 39 158)" fill="#854A2C" stroke="none"><tspan dx="0 " x="0" y="8">l</tspan><tspan dx="0 " x="1.75" y="8">i</tspan><tspan dx="0 " x="3.5" y="8">c</tspan><tspan dx="0 " x="7" y="8">e</tspan><tspan dx="0 " x="11.25" y="8">n</tspan><tspan dx="0 0 " x="15.75" y="8">ti</tspan><tspan dx="0 " x="20.25" y="8">e</tspan><tspan dx="0 " x="24.5" y="8">:</tspan><tspan dx="0 " x="26.5" y="8"> </tspan><tspan dx="0 " x="28.5" y="8">L</tspan><tspan dx="0 " x="32" y="8">i</tspan><tspan dx="0 " x="33.75" y="8">c</tspan><tspan dx="0 " x="37.25" y="8">e</tspan><tspan dx="0 " x="41.25" y="8">n</tspan><tspan dx="0 0 " x="45.5" y="8">ti</tspan><tspan dx="0 " x="50" y="8">e</tspan><tspan dx="0 " x="54" y="8">D</tspan><tspan dx="0 " x="59" y="8">o</tspan><tspan dx="0 " x="63.25" y="8">c</tspan><tspan dx="0 " x="66.5" y="8">u</tspan><tspan dx="0 " x="70.75" y="8">m</tspan><tspan dx="0 " x="77.25" y="8">e</tspan><tspan dx="0 " x="81.25" y="8">n</tspan><tspan dx="0 " x="85.5" y="8">t</tspan><tspan dx="0 " x="88.25" y="8"> </tspan><tspan dx="0 " x="90" y="8">[</tspan><tspan dx="0 " x="92.5" y="8">0</tspan><tspan dx="0 " x="96.5" y="8">.</tspan><tspan dx="0 " x="98.5" y="8">.</tspan><tspan dx="0 " x="100.5" y="8">1</tspan><tspan dx="0 " x="104.5" y="8">]</tspan></text><text transform="matrix(1 0 0 1 25 168)" fill="#854A2C" stroke="none"><tspan dx="0 " x="0" y="8">+ </tspan></text><text transform="matrix(1 0 0 1 39 168)" fill="#854A2C" stroke="none"><tspan dx="0 0 " x="0" y="8">ti</tspan><tspan dx="0 " x="4.5" y="8">t</tspan><tspan dx="0 " x="7.25" y="8">e</tspan><tspan dx="0 " x="11.5" y="8">l</tspan><tspan dx="0 " x="13.25" y="8">:</tspan><tspan dx="0 " x="15.25" y="8"> </tspan><tspan dx="0 " x="17.25" y="8">T</tspan><tspan dx="0 " x="21.5" y="8">a</tspan><tspan dx="0 " x="25.5" y="8">a</tspan><tspan dx="0 " x="29.5" y="8">l</tspan><tspan dx="0 " x="31.25" y="8">S</tspan><tspan dx="0 " x="35.25" y="8">t</tspan><tspan dx="0 " x="38" y="8">r</tspan><tspan dx="0 " x="40.75" y="8">i</tspan><tspan dx="0 " x="42.5" y="8">n</tspan><tspan dx="0 " x="47" y="8">g</tspan><tspan dx="0 " x="51" y="8"> </tspan><tspan dx="0 " x="53" y="8">[</tspan><tspan dx="0 " x="55.5" y="8">0</tspan><tspan dx="0 " x="59.5" y="8">.</tspan><tspan dx="0 " x="61.5" y="8">.</tspan><tspan dx="0 " x="63.5" y="8">1</tspan><tspan dx="0 " x="67.5" y="8">]</tspan></text><text transform="matrix(1 0 0 1 31 182)" fill="#3C3C3C" stroke="none"><tspan dx="0 " x="0" y="8">«verplicht»</tspan></text><text transform="matrix(1 0 0 1 25 192)" fill="#854A2C" stroke="none"><tspan dx="0 " x="0" y="8">+ </tspan></text><text transform="matrix(1 0 0 1 39 192)" fill="#854A2C" stroke="none"><tspan dx="0 " x="0" y="8">i</tspan><tspan dx="0 " x="1.75" y="8">d</tspan><tspan dx="0 " x="6.25" y="8">e</tspan><tspan dx="0 " x="10.5" y="8">n</tspan><tspan dx="0 0 " x="14.75" y="8">ti</tspan><tspan dx="0 0 " x="19.25" y="8">fi</tspan><tspan dx="0 " x="23.5" y="8">c</tspan><tspan dx="0 " x="26.75" y="8">a</tspan><tspan dx="0 " x="30.5" y="8">t</tspan><tspan dx="0 " x="33.25" y="8">o</tspan><tspan dx="0 " x="37.5" y="8">r</tspan><tspan dx="0 " x="40.25" y="8">:</tspan><tspan dx="0 " x="42.25" y="8"> </tspan><tspan dx="0 " x="44" y="8">I</tspan><tspan dx="0 " x="46" y="8">d</tspan><tspan dx="0 " x="50.25" y="8">e</tspan><tspan dx="0 " x="54.25" y="8">n</tspan><tspan dx="0 0 " x="58.5" y="8">ti</tspan><tspan dx="0 0 " x="63" y="8">fi</tspan><tspan dx="0 " x="67.25" y="8">c</tspan><tspan dx="0 " x="70.5" y="8">a</tspan><tspan dx="0 " x="74.25" y="8">t</tspan><tspan dx="0 " x="77" y="8">o</tspan><tspan dx="0 " x="81.25" y="8">r</tspan><tspan dx="0 " x="84" y="8"> </tspan><tspan dx="0 " x="85.75" y="8">[</tspan><tspan dx="0 " x="88.25" y="8">1</tspan><tspan dx="0 " x="92.25" y="8">.</tspan><tspan dx="0 " x="94.25" y="8">.</tspan><tspan dx="0 " x="96.25" y="8">n</tspan><tspan dx="0 " x="100.5" y="8">]</tspan></text><path fill="#CACACA" stroke="none" d="M263 148C263 143 263 143 268 143H436C441 143 441 143 441 148V328C441 333 441 333 436 333H268C263 333 263 333 263 328V148" /><path stroke="none" fill="#FDFAF7" d="M260 145C260 140 260 140 265 140H433C438 140 438 140 438 145V325C438 330 438 330 433 330H265C260 330 260 330 260 325V145" /><path stroke="#5A5A5A" d="M260 145C260 140 260 140 265 140H433C438 140 438 140 438 145V325C438 330 438 330 433 330H265C260 330 260 330 260 325V145m0 0C260 140 260 140 265 140H433C438 140 438 140 438 145V325C438 330 438 330 433 330H265C260 330 260 330 260 325V145" /><rect stroke="#5A5A5A" x="260" y="140" width="178" height="190" /><text transform="matrix(1 0 0 1 321 149)" fill="#3C3C3C" font-weight="bold" stroke="none"><desc xmlns:eadoc="http://www.siemens.com/eauml/doc"><eadoc:guid>EAID_37462A9A_C6D5_4f34_83BD_93D906F47FD3</eadoc:guid><eadoc:name>CatalogusRecord</eadoc:name><eadoc:type>Class</eadoc:type><eadoc:note></eadoc:note></desc><tspan dx="0 " x="0" y="8">CatalogusRecord</tspan></text><path stroke="#5A5A5A" d="M260 164H438" /><text transform="matrix(1 0 0 1 265 168)" fill="#854A2C" stroke="none"><tspan dx="0 " x="0" y="8">+ </tspan></text><text transform="matrix(1 0 0 1 279 168)" fill="#854A2C" stroke="none"><tspan dx="0 " x="0" y="8">aanmaakdatum: DateTime [0..1]</tspan></text><text transform="matrix(1 0 0 1 265 178)" fill="#854A2C" stroke="none"><tspan dx="0 " x="0" y="8">+ </tspan></text><text transform="matrix(1 0 0 1 279 178)" fill="#854A2C" stroke="none"><tspan dx="0 0 " x="0" y="8">ti</tspan><tspan dx="0 " x="4.5" y="8">t</tspan><tspan dx="0 " x="7.25" y="8">e</tspan><tspan dx="0 " x="11.5" y="8">l</tspan><tspan dx="0 " x="13.25" y="8">:</tspan><tspan dx="0 " x="15.25" y="8"> </tspan><tspan dx="0 " x="17.25" y="8">T</tspan><tspan dx="0 " x="21.5" y="8">a</tspan><tspan dx="0 " x="25.5" y="8">a</tspan><tspan dx="0 " x="29.5" y="8">l</tspan><tspan dx="0 " x="31.25" y="8">S</tspan><tspan dx="0 " x="35.25" y="8">t</tspan><tspan dx="0 " x="38" y="8">r</tspan><tspan dx="0 " x="40.75" y="8">i</tspan><tspan dx="0 " x="42.5" y="8">n</tspan><tspan dx="0 " x="47" y="8">g</tspan><tspan dx="0 " x="51" y="8"> </tspan><tspan dx="0 " x="53" y="8">[</tspan><tspan dx="0 " x="55.5" y="8">0</tspan><tspan dx="0 " x="59.5" y="8">.</tspan><tspan dx="0 " x="61.5" y="8">.</tspan><tspan dx="0 " x="63.5" y="8">1</tspan><tspan dx="0 " x="67.5" y="8">]</tspan></text><text transform="matrix(1 0 0 1 271 192)" fill="#3C3C3C" stroke="none"><tspan dx="0 " x="0" y="8">«verplicht»</tspan></text><text transform="matrix(1 0 0 1 265 202)" fill="#854A2C" stroke="none"><tspan dx="0 " x="0" y="8">+ </tspan></text><text transform="matrix(1 0 0 1 279 202)" fill="#854A2C" stroke="none"><tspan dx="0 " x="0" y="8">i</tspan><tspan dx="0 " x="1.75" y="8">d</tspan><tspan dx="0 " x="5.75" y="8">e</tspan><tspan dx="0 " x="9.5" y="8">n</tspan><tspan dx="0 0 " x="13.75" y="8">ti</tspan><tspan dx="0 0 " x="18.25" y="8">fi</tspan><tspan dx="0 " x="22.5" y="8">c</tspan><tspan dx="0 " x="25.75" y="8">a</tspan><tspan dx="0 " x="29.5" y="8">t</tspan><tspan dx="0 " x="32.25" y="8">o</tspan><tspan dx="0 " x="36.5" y="8">r</tspan><tspan dx="0 " x="39.25" y="8">:</tspan><tspan dx="0 " x="41.25" y="8"> </tspan><tspan dx="0 " x="43" y="8">I</tspan><tspan dx="0 " x="45" y="8">d</tspan><tspan dx="0 " x="49.25" y="8">e</tspan><tspan dx="0 " x="53.25" y="8">n</tspan><tspan dx="0 0 " x="57.5" y="8">ti</tspan><tspan dx="0 0 " x="62" y="8">fi</tspan><tspan dx="0 " x="66.25" y="8">c</tspan><tspan dx="0 " x="69.5" y="8">a</tspan><tspan dx="0 " x="73.25" y="8">t</tspan><tspan dx="0 " x="76" y="8">o</tspan><tspan dx="0 " x="80.25" y="8">r</tspan></text><path fill="#CACACA" stroke="none" d="M600 197C600 192 600 192 605 192h93C703 192 703 192 703 197v59C703 261 703 261 698 261H605C600 261 600 261 600 256V197" /><path stroke="none" fill="#FDFAF7" d="M597 194C597 189 597 189 602 189h93C700 189 700 189 700 194v59C700 258 700 258 695 258H602C597 258 597 258 597 253V194" /><path stroke="#5A5A5A" d="M597 194C597 189 597 189 602 189h93C700 189 700 189 700 194v59C700 258 700 258 695 258H602C597 258 597 258 597 253V194m0 0C597 189 597 189 602 189h93C700 189 700 189 700 194v59C700 258 700 258 695 258H602C597 258 597 258 597 253V194" /><rect stroke="#5A5A5A" x="597" y="189" width="103" height="69" /><text transform="matrix(1 0 0 1 617 198)" fill="#3C3C3C" font-weight="bold" stroke="none"><desc xmlns:eadoc="http://www.siemens.com/eauml/doc"><eadoc:guid>EAID_86AF39EF_D666_45a1_A77E_CA427938CDA4</eadoc:guid><eadoc:name>CatalogusResource</eadoc:name><eadoc:type>Class</eadoc:type><eadoc:note></eadoc:note></desc><tspan dx="0 " x="0" y="8">CatalogusResource</tspan></text><path fill="#CACACA" stroke="none" d="M713 378C713 373 713 373 718 373h334C1057 373 1057 373 1057 378V753C1057 758 1057 758 1052 758H718C713 758 713 758 713 753V378" /><path stroke="none" fill="#FDFAF7" d="M710 375C710 370 710 370 715 370h334C1054 370 1054 370 1054 375V750C1054 755 1054 755 1049 755H715C710 755 710 755 710 750V375" /><path stroke="#5A5A5A" d="M710 375C710 370 710 370 715 370h334C1054 370 1054 370 1054 375V750C1054 755 1054 755 1049 755H715C710 755 710 755 710 750V375m0 0C710 370 710 370 715 370h334C1054 370 1054 370 1054 375V750C1054 755 1054 755 1049 755H715C710 755 710 755 710 750V375" /><rect stroke="#5A5A5A" x="710" y="370" width="344" height="385" /><text transform="matrix(1 0 0 1 862 379)" fill="#3C3C3C" font-weight="bold" stroke="none"><desc xmlns:eadoc="http://www.siemens.com/eauml/doc"><eadoc:guid>EAID_0ABCEF0E_58F5_46fa_8D87_9BBCDEDA6599</eadoc:guid><eadoc:name>DataService</eadoc:name><eadoc:type>Class</eadoc:type><eadoc:note></eadoc:note></desc><tspan dx="0 " x="0" y="8">DataService</tspan></text><path stroke="#5A5A5A" d="M710 394h344" /><text transform="matrix(1 0 0 1 715 398)" fill="#854A2C" stroke="none"><tspan dx="0 " x="0" y="8">+ </tspan></text><text transform="matrix(1 0 0 1 729 398)" fill="#854A2C" stroke="none"><tspan dx="0 " x="0" y="8">a</tspan><tspan dx="0 " x="4" y="8">u</tspan><tspan dx="0 " x="8.5" y="8">t</tspan><tspan dx="0 " x="11.25" y="8">h</tspan><tspan dx="0 " x="15.75" y="8">e</tspan><tspan dx="0 " x="20" y="8">n</tspan><tspan dx="0 0 " x="24.5" y="8">ti</tspan><tspan dx="0 " x="29" y="8">c</tspan><tspan dx="0 " x="32.5" y="8">a</tspan><tspan dx="0 0 " x="36.5" y="8">ti</tspan><tspan dx="0 " x="41" y="8">e</tspan><tspan dx="0 " x="45" y="8">:</tspan><tspan dx="0 " x="47" y="8"> </tspan><tspan dx="0 " x="48.75" y="8">U</tspan><tspan dx="0 " x="54" y="8">R</tspan><tspan dx="0 " x="58.25" y="8">I</tspan><tspan dx="0 " x="60.25" y="8"> </tspan><tspan dx="0 " x="62" y="8">[</tspan><tspan dx="0 " x="64.5" y="8">0</tspan><tspan dx="0 " x="68.5" y="8">.</tspan><tspan dx="0 " x="70.5" y="8">.</tspan><tspan dx="0 " x="72.5" y="8">1</tspan><tspan dx="0 " x="76.5" y="8">]</tspan></text><text transform="matrix(1 0 0 1 715 408)" fill="#854A2C" stroke="none"><tspan dx="0 " x="0" y="8">+ </tspan></text><text transform="matrix(1 0 0 1 729 408)" fill="#854A2C" stroke="none"><tspan dx="0 " x="0" y="8">beschrijving: TaalString [0..1]</tspan></text><text transform="matrix(1 0 0 1 715 418)" fill="#854A2C" stroke="none"><tspan dx="0 " x="0" y="8">+ </tspan></text><text transform="matrix(1 0 0 1 729 418)" fill="#854A2C" stroke="none"><tspan dx="0 " x="0" y="8">dienstverleningsKwaliteit: URI [0..1]</tspan></text><text transform="matrix(1 0 0 1 715 428)" fill="#854A2C" stroke="none"><tspan dx="0 " x="0" y="8">+ </tspan></text><text transform="matrix(1 0 0 1 729 428)" fill="#854A2C" stroke="none"><tspan dx="0 " x="0" y="8">d</tspan><tspan dx="0 " x="4.5" y="8">o</tspan><tspan dx="0 " x="9" y="8">e</tspan><tspan dx="0 " x="13.25" y="8">l</tspan><tspan dx="0 " x="15" y="8">p</tspan><tspan dx="0 " x="19.5" y="8">o</tspan><tspan dx="0 " x="24" y="8">p</tspan><tspan dx="0 " x="28.5" y="8">u</tspan><tspan dx="0 " x="33" y="8">l</tspan><tspan dx="0 " x="34.75" y="8">a</tspan><tspan dx="0 0 " x="38.5" y="8">ti</tspan><tspan dx="0 " x="43" y="8">e</tspan><tspan dx="0 " x="47" y="8">:</tspan><tspan dx="0 " x="49" y="8"> </tspan><tspan dx="0 " x="50.75" y="8">U</tspan><tspan dx="0 " x="56" y="8">R</tspan><tspan dx="0 " x="60.25" y="8">I</tspan><tspan dx="0 " x="62.25" y="8"> </tspan><tspan dx="0 " x="64" y="8">[</tspan><tspan dx="0 " x="66.5" y="8">0</tspan><tspan dx="0 " x="70.5" y="8">.</tspan><tspan dx="0 " x="72.5" y="8">.</tspan><tspan dx="0 " x="74.5" y="8">1</tspan><tspan dx="0 " x="78.5" y="8">]</tspan></text><text transform="matrix(1 0 0 1 715 438)" fill="#854A2C" stroke="none"><tspan dx="0 " x="0" y="8">+ </tspan></text><text transform="matrix(1 0 0 1 729 438)" fill="#854A2C" stroke="none"><tspan dx="0 " x="0" y="8">endpointURL: URI [0..1]</tspan></text><text transform="matrix(1 0 0 1 715 448)" fill="#854A2C" stroke="none"><tspan dx="0 " x="0" y="8">+ </tspan></text><text transform="matrix(1 0 0 1 729 448)" fill="#854A2C" stroke="none"><tspan dx="0 " x="0" y="8">gebruiksbepaling: URI [0..1]</tspan></text><text transform="matrix(1 0 0 1 715 458)" fill="#854A2C" stroke="none"><tspan dx="0 " x="0" y="8">+ </tspan></text><text transform="matrix(1 0 0 1 729 458)" fill="#854A2C" stroke="none"><tspan dx="0 " x="0" y="8">landingspagina: URI [0..1]</tspan></text><text transform="matrix(1 0 0 1 715 468)" fill="#854A2C" stroke="none"><tspan dx="0 " x="0" y="8">+ </tspan></text><text transform="matrix(1 0 0 1 729 468)" fill="#854A2C" stroke="none"><tspan dx="0 " x="0" y="8">statusVanGebruik: Code [0..1]</tspan></text><text transform="matrix(1 0 0 1 715 478)" fill="#854A2C" stroke="none"><tspan dx="0 " x="0" y="8">+ </tspan></text><text transform="matrix(1 0 0 1 729 478)" fill="#854A2C" stroke="none"><tspan dx="0 " x="0" y="8">statusVanOntwikkeling: Code [0..1]</tspan></text><text transform="matrix(1 0 0 1 715 488)" fill="#854A2C" stroke="none"><tspan dx="0 " x="0" y="8">+ </tspan></text><text transform="matrix(1 0 0 1 729 488)" fill="#854A2C" stroke="none"><tspan dx="0 " x="0" y="8">taal: Code [0..1]</tspan></text><text transform="matrix(1 0 0 1 715 498)" fill="#854A2C" stroke="none"><tspan dx="0 " x="0" y="8">+ </tspan></text><text transform="matrix(1 0 0 1 729 498)" fill="#854A2C" stroke="none"><tspan dx="0 " x="0" y="8">trefwoord: TaalString [0..1]</tspan></text><text transform="matrix(1 0 0 1 715 508)" fill="#854A2C" stroke="none"><tspan dx="0 " x="0" y="8">+ </tspan></text><text transform="matrix(1 0 0 1 729 508)" fill="#854A2C" stroke="none"><tspan dx="0 " x="0" y="8">versie: String [0..1]</tspan></text><text transform="matrix(1 0 0 1 715 518)" fill="#854A2C" stroke="none"><tspan dx="0 " x="0" y="8">+ </tspan></text><text transform="matrix(1 0 0 1 729 518)" fill="#854A2C" stroke="none"><tspan dx="0 " x="0" y="8">w</tspan><tspan dx="0 " x="5.75" y="8">e</tspan><tspan dx="0 0 " x="10" y="8">tt</tspan><tspan dx="0 " x="15.5" y="8">e</tspan><tspan dx="0 " x="19.75" y="8">l</tspan><tspan dx="0 " x="21.5" y="8">i</tspan><tspan dx="0 " x="23.25" y="8">j</tspan><tspan dx="0 " x="25" y="8">k</tspan><tspan dx="0 " x="28.75" y="8">e</tspan><tspan dx="0 " x="33" y="8">B</tspan><tspan dx="0 " x="37.5" y="8">e</tspan><tspan dx="0 " x="41.75" y="8">p</tspan><tspan dx="0 " x="46.25" y="8">e</tspan><tspan dx="0 " x="50.5" y="8">r</tspan><tspan dx="0 " x="53.25" y="8">k</tspan><tspan dx="0 " x="57" y="8">i</tspan><tspan dx="0 " x="58.75" y="8">n</tspan><tspan dx="0 " x="63.25" y="8">g</tspan><tspan dx="0 " x="67.25" y="8">e</tspan><tspan dx="0 " x="71.5" y="8">n</tspan><tspan dx="0 " x="76" y="8">:</tspan><tspan dx="0 " x="78" y="8"> </tspan><tspan dx="0 " x="79.75" y="8">U</tspan><tspan dx="0 " x="85" y="8">R</tspan><tspan dx="0 " x="89.25" y="8">I</tspan><tspan dx="0 " x="91.25" y="8"> </tspan><tspan dx="0 " x="93" y="8">[</tspan><tspan dx="0 " x="95.5" y="8">0</tspan><tspan dx="0 " x="99.5" y="8">.</tspan><tspan dx="0 " x="101.5" y="8">.</tspan><tspan dx="0 " x="103.5" y="8">1</tspan><tspan dx="0 " x="107.5" y="8">]</tspan></text><text transform="matrix(1 0 0 1 721 532)" fill="#3C3C3C" stroke="none"><tspan dx="0 " x="0" y="8">«verplicht»</tspan></text><text transform="matrix(1 0 0 1 715 542)" fill="#854A2C" stroke="none"><tspan dx="0 " x="0" y="8">+ </tspan></text><text transform="matrix(1 0 0 1 729 542)" fill="#854A2C" stroke="none"><tspan dx="0 " x="0" y="8">c</tspan><tspan dx="0 " x="3.25" y="8">o</tspan><tspan dx="0 " x="7.5" y="8">n</tspan><tspan dx="0 " x="11.75" y="8">t</tspan><tspan dx="0 " x="14.5" y="8">a</tspan><tspan dx="0 " x="18.25" y="8">c</tspan><tspan dx="0 0 " x="21.5" y="8">ti</tspan><tspan dx="0 " x="26" y="8">n</tspan><tspan dx="0 " x="30.25" y="8">f</tspan><tspan dx="0 " x="32.75" y="8">o</tspan><tspan dx="0 " x="37" y="8">r</tspan><tspan dx="0 " x="39.75" y="8">m</tspan><tspan dx="0 " x="46.25" y="8">a</tspan><tspan dx="0 0 " x="50" y="8">ti</tspan><tspan dx="0 " x="54.5" y="8">e</tspan><tspan dx="0 " x="58.5" y="8">:</tspan><tspan dx="0 " x="60.5" y="8"> </tspan><tspan dx="0 " x="62.25" y="8">C</tspan><tspan dx="0 " x="66.5" y="8">o</tspan><tspan dx="0 " x="70.75" y="8">n</tspan><tspan dx="0 " x="75" y="8">t</tspan><tspan dx="0 " x="77.75" y="8">a</tspan><tspan dx="0 " x="81.5" y="8">c</tspan><tspan dx="0 0 " x="84.75" y="8">ti</tspan><tspan dx="0 " x="89.25" y="8">n</tspan><tspan dx="0 " x="93.5" y="8">f</tspan><tspan dx="0 " x="96" y="8">o</tspan><tspan dx="0 " x="100.25" y="8"> </tspan></text><text transform="matrix(1 0 0 1 715 552)" fill="#854A2C" stroke="none"><tspan dx="0 " x="0" y="8">+ </tspan></text><text transform="matrix(1 0 0 1 729 552)" fill="#854A2C" stroke="none"><tspan dx="0 " x="0" y="8">endpointbeschrijving: URI</tspan></text><text transform="matrix(1 0 0 1 715 562)" fill="#854A2C" stroke="none"><tspan dx="0 " x="0" y="8">+ </tspan></text><text transform="matrix(1 0 0 1 729 562)" fill="#854A2C" stroke="none"><tspan dx="0 " x="0" y="8">i</tspan><tspan dx="0 " x="1.75" y="8">d</tspan><tspan dx="0 " x="6.25" y="8">e</tspan><tspan dx="0 " x="10.5" y="8">n</tspan><tspan dx="0 0 " x="14.75" y="8">ti</tspan><tspan dx="0 0 " x="19.25" y="8">fi</tspan><tspan dx="0 " x="23.5" y="8">c</tspan><tspan dx="0 " x="26.75" y="8">a</tspan><tspan dx="0 " x="30.5" y="8">t</tspan><tspan dx="0 " x="33.25" y="8">o</tspan><tspan dx="0 " x="37.5" y="8">r</tspan><tspan dx="0 " x="40.25" y="8">:</tspan><tspan dx="0 " x="42.25" y="8"> </tspan><tspan dx="0 " x="44" y="8">I</tspan><tspan dx="0 " x="46" y="8">d</tspan><tspan dx="0 " x="50.25" y="8">e</tspan><tspan dx="0 " x="54.25" y="8">n</tspan><tspan dx="0 0 " x="58.5" y="8">ti</tspan><tspan dx="0 0 " x="63" y="8">fi</tspan><tspan dx="0 " x="67.25" y="8">c</tspan><tspan dx="0 " x="70.5" y="8">a</tspan><tspan dx="0 " x="74.25" y="8">t</tspan><tspan dx="0 " x="77" y="8">o</tspan><tspan dx="0 " x="81.25" y="8">r</tspan><tspan dx="0 " x="84" y="8"> </tspan><tspan dx="0 " x="85.75" y="8">[</tspan><tspan dx="0 " x="88.25" y="8">1</tspan><tspan dx="0 " x="92.25" y="8">.</tspan><tspan dx="0 " x="94.25" y="8">.</tspan><tspan dx="0 " x="96.25" y="8">n</tspan><tspan dx="0 " x="100.5" y="8">]</tspan></text><text transform="matrix(1 0 0 1 715 572)" fill="#854A2C" stroke="none"><tspan dx="0 " x="0" y="8">+ </tspan></text><text transform="matrix(1 0 0 1 729 572)" fill="#854A2C" stroke="none"><tspan dx="0 0 " x="0" y="8">ti</tspan><tspan dx="0 " x="4.5" y="8">t</tspan><tspan dx="0 " x="7.25" y="8">e</tspan><tspan dx="0 " x="11.5" y="8">l</tspan><tspan dx="0 " x="13.25" y="8">:</tspan><tspan dx="0 " x="15.25" y="8"> </tspan><tspan dx="0 " x="17.25" y="8">T</tspan><tspan dx="0 " x="21.5" y="8">a</tspan><tspan dx="0 " x="25.5" y="8">a</tspan><tspan dx="0 " x="29.25" y="8">l</tspan><tspan dx="0 " x="31" y="8">S</tspan><tspan dx="0 " x="34.75" y="8">t</tspan><tspan dx="0 " x="37.5" y="8">r</tspan><tspan dx="0 " x="40.25" y="8">i</tspan><tspan dx="0 " x="42" y="8">n</tspan><tspan dx="0 " x="46.25" y="8">g</tspan></text><path fill="#CACACA" stroke="none" d="M243 378C243 373 243 373 248 373H456C461 373 461 373 461 378V688C461 693 461 693 456 693H248C243 693 243 693 243 688V378" /><path stroke="none" fill="#FDFAF7" d="M240 375C240 370 240 370 245 370H453C458 370 458 370 458 375V685C458 690 458 690 453 690H245C240 690 240 690 240 685V375" /><path stroke="#5A5A5A" d="M240 375C240 370 240 370 245 370H453C458 370 458 370 458 375V685C458 690 458 690 453 690H245C240 690 240 690 240 685V375m0 0C240 370 240 370 245 370H453C458 370 458 370 458 375V685C458 690 458 690 453 690H245C240 690 240 690 240 685V375" /><rect stroke="#5A5A5A" x="240" y="370" width="218" height="320" /><text transform="matrix(1 0 0 1 336 379)" fill="#3C3C3C" font-weight="bold" stroke="none"><desc xmlns:eadoc="http://www.siemens.com/eauml/doc"><eadoc:guid>EAID_85F88827_27A8_4701_B2B0_57DE345025CA</eadoc:guid><eadoc:name>Dataset</eadoc:name><eadoc:type>Class</eadoc:type><eadoc:note></eadoc:note></desc><tspan dx="0 " x="0" y="8">Dataset</tspan></text><path stroke="#5A5A5A" d="M240 394H458" /><text transform="matrix(1 0 0 1 245 398)" fill="#854A2C" stroke="none"><tspan dx="0 " x="0" y="8">+ </tspan></text><text transform="matrix(1 0 0 1 259 398)" fill="#854A2C" stroke="none"><tspan dx="0 " x="0" y="8">beschrijving: TaalString [0..1]</tspan></text><text transform="matrix(1 0 0 1 245 408)" fill="#854A2C" stroke="none"><tspan dx="0 " x="0" y="8">+ </tspan></text><text transform="matrix(1 0 0 1 259 408)" fill="#854A2C" stroke="none"><tspan dx="0 " x="0" y="8">c</tspan><tspan dx="0 " x="3.5" y="8">o</tspan><tspan dx="0 " x="8" y="8">n</tspan><tspan dx="0 " x="12.5" y="8">t</tspan><tspan dx="0 " x="15.25" y="8">a</tspan><tspan dx="0 " x="19.25" y="8">c</tspan><tspan dx="0 0 " x="22.75" y="8">ti</tspan><tspan dx="0 " x="27.25" y="8">n</tspan><tspan dx="0 " x="31.75" y="8">f</tspan><tspan dx="0 " x="34.25" y="8">o</tspan><tspan dx="0 " x="38.75" y="8">r</tspan><tspan dx="0 " x="41.5" y="8">m</tspan><tspan dx="0 " x="48" y="8">a</tspan><tspan dx="0 0 " x="51.75" y="8">ti</tspan><tspan dx="0 " x="56.25" y="8">e</tspan><tspan dx="0 " x="60.25" y="8">:</tspan><tspan dx="0 " x="62.25" y="8"> </tspan><tspan dx="0 " x="64" y="8">C</tspan><tspan dx="0 " x="68.25" y="8">o</tspan><tspan dx="0 " x="72.5" y="8">n</tspan><tspan dx="0 " x="76.75" y="8">t</tspan><tspan dx="0 " x="79.5" y="8">a</tspan><tspan dx="0 " x="83.25" y="8">c</tspan><tspan dx="0 " x="86.5" y="8">t</tspan><tspan dx="0 " x="89.25" y="8">I</tspan><tspan dx="0 " x="91.25" y="8">n</tspan><tspan dx="0 " x="95.5" y="8">f</tspan><tspan dx="0 " x="98" y="8">o</tspan><tspan dx="0 " x="102.25" y="8"> </tspan><tspan dx="0 " x="104" y="8">[</tspan><tspan dx="0 " x="106.5" y="8">0</tspan><tspan dx="0 " x="110.5" y="8">.</tspan><tspan dx="0 " x="112.5" y="8">.</tspan><tspan dx="0 " x="114.5" y="8">1</tspan><tspan dx="0 " x="118.5" y="8">]</tspan></text><text transform="matrix(1 0 0 1 245 418)" fill="#854A2C" stroke="none"><tspan dx="0 " x="0" y="8">+ </tspan></text><text transform="matrix(1 0 0 1 259 418)" fill="#854A2C" stroke="none"><tspan dx="0 " x="0" y="8">landingspagina: URI [0..1]</tspan></text><text transform="matrix(1 0 0 1 245 428)" fill="#854A2C" stroke="none"><tspan dx="0 " x="0" y="8">+ </tspan></text><text transform="matrix(1 0 0 1 259 428)" fill="#854A2C" stroke="none"><tspan dx="0 " x="0" y="8">thema: Code [0..n]</tspan></text><text transform="matrix(1 0 0 1 245 438)" fill="#854A2C" stroke="none"><tspan dx="0 " x="0" y="8">+ </tspan></text><text transform="matrix(1 0 0 1 259 438)" fill="#854A2C" stroke="none"><tspan dx="0 0 " x="0" y="8">ti</tspan><tspan dx="0 " x="4.5" y="8">t</tspan><tspan dx="0 " x="7.25" y="8">e</tspan><tspan dx="0 " x="11.5" y="8">l</tspan><tspan dx="0 " x="13.25" y="8">:</tspan><tspan dx="0 " x="15.25" y="8"> </tspan><tspan dx="0 " x="17.25" y="8">T</tspan><tspan dx="0 " x="21.5" y="8">a</tspan><tspan dx="0 " x="25.5" y="8">a</tspan><tspan dx="0 " x="29.5" y="8">l</tspan><tspan dx="0 " x="31.25" y="8">S</tspan><tspan dx="0 " x="35.25" y="8">t</tspan><tspan dx="0 " x="38" y="8">r</tspan><tspan dx="0 " x="40.75" y="8">i</tspan><tspan dx="0 " x="42.5" y="8">n</tspan><tspan dx="0 " x="47" y="8">g</tspan><tspan dx="0 " x="51" y="8"> </tspan><tspan dx="0 " x="53" y="8">[</tspan><tspan dx="0 " x="55.5" y="8">0</tspan><tspan dx="0 " x="59.5" y="8">.</tspan><tspan dx="0 " x="61.5" y="8">.</tspan><tspan dx="0 " x="63.5" y="8">1</tspan><tspan dx="0 " x="67.5" y="8">]</tspan></text><text transform="matrix(1 0 0 1 245 448)" fill="#854A2C" stroke="none"><tspan dx="0 " x="0" y="8">+ </tspan></text><text transform="matrix(1 0 0 1 259 448)" fill="#854A2C" stroke="none"><tspan dx="0 " x="0" y="8">toegankelijkheid: Code [0..1]</tspan></text><text transform="matrix(1 0 0 1 251 462)" fill="#3C3C3C" stroke="none"><tspan dx="0 " x="0" y="8">«verplicht»</tspan></text><text transform="matrix(1 0 0 1 245 472)" fill="#854A2C" stroke="none"><tspan dx="0 " x="0" y="8">+ </tspan></text><text transform="matrix(1 0 0 1 259 472)" fill="#854A2C" stroke="none"><tspan dx="0 " x="0" y="8">i</tspan><tspan dx="0 " x="1.75" y="8">d</tspan><tspan dx="0 " x="6.25" y="8">e</tspan><tspan dx="0 " x="10.5" y="8">n</tspan><tspan dx="0 0 " x="14.75" y="8">ti</tspan><tspan dx="0 0 " x="19.25" y="8">fi</tspan><tspan dx="0 " x="23.5" y="8">c</tspan><tspan dx="0 " x="26.75" y="8">a</tspan><tspan dx="0 " x="30.5" y="8">t</tspan><tspan dx="0 " x="33.25" y="8">o</tspan><tspan dx="0 " x="37.5" y="8">r</tspan><tspan dx="0 " x="40.25" y="8">:</tspan><tspan dx="0 " x="42.25" y="8"> </tspan><tspan dx="0 " x="44" y="8">I</tspan><tspan dx="0 " x="46" y="8">d</tspan><tspan dx="0 " x="50.25" y="8">e</tspan><tspan dx="0 " x="54.25" y="8">n</tspan><tspan dx="0 0 " x="58.5" y="8">ti</tspan><tspan dx="0 0 " x="63" y="8">fi</tspan><tspan dx="0 " x="67.25" y="8">c</tspan><tspan dx="0 " x="70.5" y="8">a</tspan><tspan dx="0 " x="74.25" y="8">t</tspan><tspan dx="0 " x="77" y="8">o</tspan><tspan dx="0 " x="81.25" y="8">r</tspan><tspan dx="0 " x="84" y="8"> </tspan><tspan dx="0 " x="85.75" y="8">[</tspan><tspan dx="0 " x="88.25" y="8">1</tspan><tspan dx="0 " x="92.25" y="8">.</tspan><tspan dx="0 " x="94.25" y="8">.</tspan><tspan dx="0 " x="96.25" y="8">n</tspan><tspan dx="0 " x="100.5" y="8">]</tspan></text><path fill="#CACACA" stroke="none" d="M43 648C43 643 43 643 48 643H191C196 643 196 643 196 648V841C196 846 196 846 191 846H48C43 846 43 846 43 841V648" /><path stroke="none" fill="#FDFAF7" d="M40 645C40 640 40 640 45 640H188C193 640 193 640 193 645V838C193 843 193 843 188 843H45C40 843 40 843 40 838V645" /><path stroke="#5A5A5A" d="M40 645C40 640 40 640 45 640H188C193 640 193 640 193 645V838C193 843 193 843 188 843H45C40 843 40 843 40 838V645m0 0C40 640 40 640 45 640H188C193 640 193 640 193 645V838C193 843 193 843 188 843H45C40 843 40 843 40 838V645" /><rect stroke="#5A5A5A" x="40" y="640" width="153" height="203" /><text transform="matrix(1 0 0 1 100 649)" fill="#3C3C3C" font-weight="bold" stroke="none"><desc xmlns:eadoc="http://www.siemens.com/eauml/doc"><eadoc:guid>EAID_8124DB04_5C88_4ee5_ABBF_D5301C0811A6</eadoc:guid><eadoc:name>Distributie</eadoc:name><eadoc:type>Class</eadoc:type><eadoc:note></eadoc:note></desc><tspan dx="0 " x="0" y="8">D</tspan><tspan dx="0 " x="4.75" y="8">i</tspan><tspan dx="0 " x="6.5" y="8">s</tspan><tspan dx="0 " x="9.5" y="8">t</tspan><tspan dx="0 " x="12.25" y="8">r</tspan><tspan dx="0 " x="15.25" y="8">i</tspan><tspan dx="0 " x="17" y="8">b</tspan><tspan dx="0 " x="21.25" y="8">u</tspan><tspan dx="0 0 " x="25.5" y="8">ti</tspan><tspan dx="0 " x="30" y="8">e</tspan></text><path stroke="#5A5A5A" d="M40 664H193" /><text transform="matrix(1 0 0 1 45 668)" fill="#854A2C" stroke="none"><tspan dx="0 " x="0" y="8">+ </tspan></text><text transform="matrix(1 0 0 1 59 668)" fill="#854A2C" stroke="none"><tspan dx="0 " x="0" y="8">downloadURL: URI [0..1]</tspan></text><text transform="matrix(1 0 0 1 45 678)" fill="#854A2C" stroke="none"><tspan dx="0 " x="0" y="8">+ </tspan></text><text transform="matrix(1 0 0 1 59 678)" fill="#854A2C" stroke="none"><tspan dx="0 " x="0" y="8">l</tspan><tspan dx="0 " x="1.75" y="8">i</tspan><tspan dx="0 " x="3.5" y="8">c</tspan><tspan dx="0 " x="7" y="8">e</tspan><tspan dx="0 " x="11.25" y="8">n</tspan><tspan dx="0 0 " x="15.75" y="8">ti</tspan><tspan dx="0 " x="20.25" y="8">e</tspan><tspan dx="0 " x="24.5" y="8">:</tspan><tspan dx="0 " x="26.5" y="8"> </tspan><tspan dx="0 " x="28.5" y="8">L</tspan><tspan dx="0 " x="32" y="8">i</tspan><tspan dx="0 " x="33.75" y="8">c</tspan><tspan dx="0 " x="37.25" y="8">e</tspan><tspan dx="0 " x="41.25" y="8">n</tspan><tspan dx="0 0 " x="45.5" y="8">ti</tspan><tspan dx="0 " x="50" y="8">e</tspan><tspan dx="0 " x="54" y="8">D</tspan><tspan dx="0 " x="59" y="8">o</tspan><tspan dx="0 " x="63.25" y="8">c</tspan><tspan dx="0 " x="66.5" y="8">u</tspan><tspan dx="0 " x="70.75" y="8">m</tspan><tspan dx="0 " x="77.25" y="8">e</tspan><tspan dx="0 " x="81.25" y="8">n</tspan><tspan dx="0 " x="85.5" y="8">t</tspan><tspan dx="0 " x="88.25" y="8"> </tspan><tspan dx="0 " x="90" y="8">[</tspan><tspan dx="0 " x="92.5" y="8">0</tspan><tspan dx="0 " x="96.5" y="8">.</tspan><tspan dx="0 " x="98.5" y="8">.</tspan><tspan dx="0 " x="100.5" y="8">1</tspan><tspan dx="0 " x="104.5" y="8">]</tspan></text><text transform="matrix(1 0 0 1 45 688)" fill="#854A2C" stroke="none"><tspan dx="0 " x="0" y="8">+ </tspan></text><text transform="matrix(1 0 0 1 59 688)" fill="#854A2C" stroke="none"><tspan dx="0 0 " x="0" y="8">ti</tspan><tspan dx="0 " x="4.5" y="8">t</tspan><tspan dx="0 " x="7.25" y="8">e</tspan><tspan dx="0 " x="11.5" y="8">l</tspan><tspan dx="0 " x="13.25" y="8">:</tspan><tspan dx="0 " x="15.25" y="8"> </tspan><tspan dx="0 " x="17.25" y="8">T</tspan><tspan dx="0 " x="21.5" y="8">a</tspan><tspan dx="0 " x="25.5" y="8">a</tspan><tspan dx="0 " x="29.5" y="8">l</tspan><tspan dx="0 " x="31.25" y="8">S</tspan><tspan dx="0 " x="35.25" y="8">t</tspan><tspan dx="0 " x="38" y="8">r</tspan><tspan dx="0 " x="40.75" y="8">i</tspan><tspan dx="0 " x="42.5" y="8">n</tspan><tspan dx="0 " x="47" y="8">g</tspan><tspan dx="0 " x="51" y="8"> </tspan><tspan dx="0 " x="53" y="8">[</tspan><tspan dx="0 " x="55.5" y="8">0</tspan><tspan dx="0 " x="59.5" y="8">.</tspan><tspan dx="0 " x="61.5" y="8">.</tspan><tspan dx="0 " x="63.5" y="8">1</tspan><tspan dx="0 " x="67.5" y="8">]</tspan></text><text transform="matrix(1 0 0 1 45 698)" fill="#854A2C" stroke="none"><tspan dx="0 " x="0" y="8">+ </tspan></text><text transform="matrix(1 0 0 1 59 698)" fill="#854A2C" stroke="none"><tspan dx="0 " x="0" y="8">toegangsURL: URI [0..1]</tspan></text><text transform="matrix(1 0 0 1 51 712)" fill="#3C3C3C" stroke="none"><tspan dx="0 " x="0" y="8">«verplicht»</tspan></text><text transform="matrix(1 0 0 1 45 722)" fill="#854A2C" stroke="none"><tspan dx="0 " x="0" y="8">+ </tspan></text><text transform="matrix(1 0 0 1 59 722)" fill="#854A2C" stroke="none"><tspan dx="0 " x="0" y="8">i</tspan><tspan dx="0 " x="1.75" y="8">d</tspan><tspan dx="0 " x="6.25" y="8">e</tspan><tspan dx="0 " x="10.5" y="8">n</tspan><tspan dx="0 0 " x="14.75" y="8">ti</tspan><tspan dx="0 0 " x="19.25" y="8">fi</tspan><tspan dx="0 " x="23.5" y="8">c</tspan><tspan dx="0 " x="26.75" y="8">a</tspan><tspan dx="0 " x="30.5" y="8">t</tspan><tspan dx="0 " x="33.25" y="8">o</tspan><tspan dx="0 " x="37.5" y="8">r</tspan><tspan dx="0 " x="40.25" y="8">:</tspan><tspan dx="0 " x="42.25" y="8"> </tspan><tspan dx="0 " x="44" y="8">I</tspan><tspan dx="0 " x="46" y="8">d</tspan><tspan dx="0 " x="50.25" y="8">e</tspan><tspan dx="0 " x="54.25" y="8">n</tspan><tspan dx="0 0 " x="58.5" y="8">ti</tspan><tspan dx="0 0 " x="63" y="8">fi</tspan><tspan dx="0 " x="67.25" y="8">c</tspan><tspan dx="0 " x="70.5" y="8">a</tspan><tspan dx="0 " x="74.25" y="8">t</tspan><tspan dx="0 " x="77" y="8">o</tspan><tspan dx="0 " x="81.25" y="8">r</tspan><tspan dx="0 " x="84" y="8"> </tspan><tspan dx="0 " x="85.75" y="8">[</tspan><tspan dx="0 " x="88.25" y="8">1</tspan><tspan dx="0 " x="92.25" y="8">.</tspan><tspan dx="0 " x="94.25" y="8">.</tspan><tspan dx="0 " x="96.25" y="8">n</tspan><tspan dx="0 " x="100.5" y="8">]</tspan></text><path fill="#CACACA" stroke="none" d="M803 48C803 43 803 43 808 43h79C892 43 892 43 892 48v65C892 118 892 118 887 118H808C803 118 803 118 803 113V48" /><path stroke="none" fill="#FFFFE0" d="M800 45C800 40 800 40 805 40h79C889 40 889 40 889 45v65C889 115 889 115 884 115H805C800 115 800 115 800 110V45" /><path stroke="#5A5A5A" d="M800 45C800 40 800 40 805 40h79C889 40 889 40 889 45v65C889 115 889 115 884 115H805C800 115 800 115 800 110V45m0 0C800 40 800 40 805 40h79C889 40 889 40 889 45v65C889 115 889 115 884 115H805C800 115 800 115 800 110V45" /><rect stroke="#5A5A5A" x="800" y="40" width="89" height="75" /><text transform="matrix(1 0 0 1 825 46)" fill="#3C3C3C" stroke="none"><tspan dx="0 " x="0" y="8">«dataType»</tspan></text><text transform="matrix(1 0 0 1 826 56)" fill="#3C3C3C" font-weight="bold" stroke="none"><tspan dx="0 " x="0" y="8">C</tspan><tspan dx="0 " x="4" y="8">o</tspan><tspan dx="0 " x="8" y="8">n</tspan><tspan dx="0 " x="12" y="8">t</tspan><tspan dx="0 " x="14.75" y="8">a</tspan><tspan dx="0 " x="18.5" y="8">c</tspan><tspan dx="0 0 " x="21.75" y="8">ti</tspan><tspan dx="0 " x="26.25" y="8">n</tspan><tspan dx="0 " x="30.25" y="8">f</tspan><tspan dx="0 " x="32.75" y="8">o</tspan></text><path stroke="#5A5A5A" d="M800 71h89" /><text transform="matrix(1 0 0 1 811 79)" fill="#3C3C3C" stroke="none"><tspan dx="0 " x="0" y="8">«verplicht»</tspan></text><text transform="matrix(1 0 0 1 805 89)" fill="#854A2C" stroke="none"><tspan dx="0 " x="0" y="8">+ </tspan></text><text transform="matrix(1 0 0 1 819 89)" fill="#854A2C" stroke="none"><tspan dx="0 " x="0" y="8">email: URI</tspan></text><path fill="#CACACA" stroke="none" d="M583 38C583 33 583 33 588 33H696C701 33 701 33 701 38V97C701 102 701 102 696 102H588C583 102 583 102 583 97V38" /><path stroke="none" fill="#FDFAF7" d="M580 35C580 30 580 30 585 30H693C698 30 698 30 698 35V94C698 99 698 99 693 99H585C580 99 580 99 580 94V35" /><path stroke="#5A5A5A" d="M580 35C580 30 580 30 585 30H693C698 30 698 30 698 35V94C698 99 698 99 693 99H585C580 99 580 99 580 94V35m0 0C580 30 580 30 585 30H693C698 30 698 30 698 35V94C698 99 698 99 693 99H585C580 99 580 99 580 94V35" /><rect stroke="#5A5A5A" x="580" y="30" width="118" height="69" /><text transform="matrix(1 0 0 1 600 39)" fill="#3C3C3C" font-weight="bold" font-style="italic" stroke="none"><desc xmlns:eadoc="http://www.siemens.com/eauml/doc"><eadoc:guid>EAID_9373B7C5_B37B_4c94_A47B_44AC43F34274</eadoc:guid><eadoc:name>Agent</eadoc:name><eadoc:type>Class</eadoc:type><eadoc:note>In CPSV-AP heeft Agent een aantal velden (Identifier, Name, Type) die hier echter zijn weggelaten. Identifier en Name zijn immers bij de subklassen te vinden en Type is redundant wegens subklassen.</eadoc:note></desc><tspan dx="0 " x="0" y="8">OSLO-Generiek::Agent</tspan></text><path stroke="#5A5A5A" d="M580 54H698" /><text transform="matrix(1 0 0 1 591 62)" fill="#3C3C3C" stroke="none"><tspan dx="0 " x="0" y="8">«verplicht»</tspan></text><text transform="matrix(1 0 0 1 585 72)" fill="#854A2C" stroke="none"><tspan dx="0 " x="0" y="8">+ </tspan></text><text transform="matrix(1 0 0 1 599 72)" fill="#854A2C" stroke="none"><tspan dx="0 " x="0" y="8">naam: TaalString [1..n]</tspan></text><path stroke="#696969" d="M77 110V3m0 0H978m0 0V370" /><path stroke="#696969" d="M240 478H110m0 0V640" /><path stroke="#696969" d="M74 340v63m0 0H240" /><path stroke="#696969" d="M98 110V44m0 0H580" /><path stroke="#696969" d="M194 740H710" /><path stroke="#696969" d="M351 370V346m0 0H637m0 0V259" /><path stroke="#696969" fill="#F7DDB4" d="M643 275H631l6 -16l6 16" /><path stroke="#696969" d="M832 370V333m0 0H685m0 0V259" /><path stroke="#696969" fill="#F7DDB4" d="M691 275H679l6 -16l6 16" /><path stroke="#696969" d="M710 530H459" /><path stroke="#696969" d="M627 189V100" /><path stroke="#696969" d="M194 235h66" /><path stroke="#696969" d="M439 232H597" /><g transform="matrix(1 0 0 -1 190 388)"><rect fill="#FFFFFF" stroke="none" x="0" width="47" y="-10" height="10" /></g><text transform="matrix(1 0 0 1 190 388)" fill="#3C3C3C" stroke="none"><tspan dx="0 " x="0" y="8">+</tspan><tspan dx="0 " x="4.25" y="8">h</tspan><tspan dx="0 " x="8.75" y="8">e</tspan><tspan dx="0 " x="12.75" y="8">e</tspan><tspan dx="0 0 " x="16.75" y="8">ft</tspan><tspan dx="0 " x="22" y="8">D</tspan><tspan dx="0 " x="27" y="8">a</tspan><tspan dx="0 " x="30.75" y="8">t</tspan><tspan dx="0 " x="33.5" y="8">a</tspan><tspan dx="0 " x="37.25" y="8">s</tspan><tspan dx="0 " x="40.25" y="8">e</tspan><tspan dx="0 " x="44.25" y="8">t</tspan></text><g transform="matrix(1 0 0 -1 225 408)"><rect fill="#FFFFFF" stroke="none" x="0" width="13" y="-10" height="10" /></g><text transform="matrix(1 0 0 1 225 408)" fill="#3C3C3C" stroke="none"><tspan dx="0 " x="0" y="8">0..*</tspan></text><g transform="matrix(1 0 0 -1 588 105)"><rect fill="#FFFFFF" stroke="none" x="0" width="32" y="-10" height="10" /></g><text transform="matrix(1 0 0 1 588 105)" fill="#3C3C3C" stroke="none"><tspan dx="0 " x="0" y="8">+uitgever</tspan></text><g transform="matrix(1 0 0 -1 639 105)"><rect fill="#FFFFFF" stroke="none" x="0" width="13" y="-10" height="10" /></g><text transform="matrix(1 0 0 1 639 105)" fill="#3C3C3C" stroke="none"><tspan dx="0 " x="0" y="8">0..1</tspan></text><g transform="matrix(1 0 0 -1 131 625)"><rect fill="#FFFFFF" stroke="none" x="0" width="37" y="-10" height="10" /></g><text transform="matrix(1 0 0 1 131 625)" fill="#3C3C3C" stroke="none"><tspan dx="0 " x="0" y="8">+</tspan><tspan dx="0 " x="3.75" y="8">d</tspan><tspan dx="0 " x="8" y="8">i</tspan><tspan dx="0 " x="9.75" y="8">s</tspan><tspan dx="0 " x="12.75" y="8">t</tspan><tspan dx="0 " x="15.5" y="8">r</tspan><tspan dx="0 " x="18.25" y="8">i</tspan><tspan dx="0 " x="20" y="8">b</tspan><tspan dx="0 " x="24.25" y="8">u</tspan><tspan dx="0 0 " x="28.5" y="8">ti</tspan><tspan dx="0 " x="33" y="8">e</tspan></text><g transform="matrix(1 0 0 -1 87 624)"><rect fill="#FFFFFF" stroke="none" x="0" width="13" y="-10" height="10" /></g><text transform="matrix(1 0 0 1 87 624)" fill="#3C3C3C" stroke="none"><tspan dx="0 " x="0" y="8">0..*</tspan></text><g transform="matrix(1 0 0 -1 545 29)"><rect fill="#FFFFFF" stroke="none" x="0" width="32" y="-10" height="10" /></g><text transform="matrix(1 0 0 1 545 29)" fill="#3C3C3C" stroke="none"><tspan dx="0 " x="0" y="8">+uitgever</tspan></text><g transform="matrix(1 0 0 -1 565 49)"><rect fill="#FFFFFF" stroke="none" x="0" width="13" y="-10" height="10" /></g><text transform="matrix(1 0 0 1 565 49)" fill="#3C3C3C" stroke="none"><tspan dx="0 " x="0" y="8">0..1</tspan></text><g transform="matrix(1 0 0 -1 909 354)"><rect fill="#FFFFFF" stroke="none" x="0" width="62" y="-10" height="10" /></g><text transform="matrix(1 0 0 1 909 354)" fill="#3C3C3C" stroke="none"><tspan dx="0 " x="0" y="8">+</tspan><tspan dx="0 " x="4.25" y="8">h</tspan><tspan dx="0 " x="8.75" y="8">e</tspan><tspan dx="0 " x="13" y="8">e</tspan><tspan dx="0 0 " x="17.25" y="8">ft</tspan><tspan dx="0 " x="22.5" y="8">D</tspan><tspan dx="0 " x="27.75" y="8">a</tspan><tspan dx="0 " x="31.75" y="8">t</tspan><tspan dx="0 " x="34.5" y="8">a</tspan><tspan dx="0 " x="38.5" y="8">S</tspan><tspan dx="0 " x="42.5" y="8">e</tspan><tspan dx="0 " x="46.75" y="8">r</tspan><tspan dx="0 " x="49.5" y="8">v</tspan><tspan dx="0 " x="53" y="8">i</tspan><tspan dx="0 " x="54.75" y="8">c</tspan><tspan dx="0 " x="58" y="8">e</tspan></text><g transform="matrix(1 0 0 -1 986 355)"><rect fill="#FFFFFF" stroke="none" x="0" width="13" y="-10" height="10" /></g><text transform="matrix(1 0 0 1 986 355)" fill="#3C3C3C" stroke="none"><tspan dx="0 " x="0" y="8">0..*</tspan></text><g transform="matrix(1 0 0 -1 536 218)"><rect fill="#FFFFFF" stroke="none" x="0" width="59" y="-10" height="10" /></g><text transform="matrix(1 0 0 1 536 218)" fill="#3C3C3C" stroke="none"><tspan dx="0 " x="0" y="8">+hoofdonderwerp</tspan></text><g transform="matrix(1 0 0 -1 582 237)"><rect fill="#FFFFFF" stroke="none" x="0" width="13" y="-10" height="10" /></g><text transform="matrix(1 0 0 1 582 237)" fill="#3C3C3C" stroke="none"><tspan dx="0 " x="0" y="8">0..1</tspan></text><g transform="matrix(1 0 0 -1 471 513)"><rect fill="#FFFFFF" stroke="none" x="0" width="86" y="-10" height="10" /></g><text transform="matrix(1 0 0 1 471 513)" fill="#3C3C3C" stroke="none"><tspan dx="0 " x="0" y="8">+</tspan><tspan dx="0 " x="4.25" y="8">b</tspan><tspan dx="0 " x="8.75" y="8">i</tspan><tspan dx="0 " x="10.5" y="8">e</tspan><tspan dx="0 " x="14.75" y="8">d</tspan><tspan dx="0 " x="19.25" y="8">t</tspan><tspan dx="0 " x="22" y="8">I</tspan><tspan dx="0 " x="24" y="8">n</tspan><tspan dx="0 " x="28.5" y="8">f</tspan><tspan dx="0 " x="31" y="8">o</tspan><tspan dx="0 " x="35.5" y="8">r</tspan><tspan dx="0 " x="38.25" y="8">m</tspan><tspan dx="0 " x="45" y="8">a</tspan><tspan dx="0 0 " x="49" y="8">ti</tspan><tspan dx="0 " x="53.5" y="8">e</tspan><tspan dx="0 " x="57.75" y="8">A</tspan><tspan dx="0 " x="62.5" y="8">a</tspan><tspan dx="0 " x="66.25" y="8">n</tspan><tspan dx="0 " x="70.5" y="8">O</tspan><tspan dx="0 " x="75.75" y="8">v</tspan><tspan dx="0 " x="79.25" y="8">e</tspan><tspan dx="0 " x="83.25" y="8">r</tspan></text><g transform="matrix(1 0 0 -1 462 535)"><rect fill="#FFFFFF" stroke="none" x="0" width="13" y="-10" height="10" /></g><text transform="matrix(1 0 0 1 462 535)" fill="#3C3C3C" stroke="none"><tspan dx="0 " x="0" y="8">0..*</tspan></text><g transform="matrix(1 0 0 -1 626 725)"><rect fill="#FFFFFF" stroke="none" x="0" width="82" y="-10" height="10" /></g><text transform="matrix(1 0 0 1 626 725)" fill="#3C3C3C" stroke="none"><tspan dx="0 " x="0" y="8">+wordtAangebodenDoor</tspan></text><g transform="matrix(1 0 0 -1 695 745)"><rect fill="#FFFFFF" stroke="none" x="0" width="13" y="-10" height="10" /></g><text transform="matrix(1 0 0 1 695 745)" fill="#3C3C3C" stroke="none"><tspan dx="0 " x="0" y="8">0..*</tspan></text><g transform="matrix(1 0 0 -1 232 220)"><rect fill="#FFFFFF" stroke="none" x="0" width="25" y="-10" height="10" /></g><text transform="matrix(1 0 0 1 232 220)" fill="#3C3C3C" stroke="none"><tspan dx="0 " x="0" y="8">+record</tspan></text><g transform="matrix(1 0 0 -1 245 240)"><rect fill="#FFFFFF" stroke="none" x="0" width="13" y="-10" height="10" /></g><text transform="matrix(1 0 0 1 245 240)" fill="#3C3C3C" stroke="none"><tspan dx="0 " x="0" y="8">0..*</tspan></text></g></g></g></g></svg>